<svg width="64" height="64" viewBox="0 0 64 64" xmlns="http://www.w3.org/2000/svg" role="img" aria-label="정원한의원">
  <defs>
    <linearGradient id="jw-g" x1="0" y1="0" x2="1" y2="1">
      <stop offset="0" stop-color="#1b6e3c"/>
      <stop offset="1" stop-color="#14532d"/>
    </linearGradient>
  </defs>
  <rect width="64" height="64" rx="14" fill="url(#jw-g)"/>
  <!-- leaf / herbal motif forming an enclosed 'garden(정원)' circle -->
  <path d="M32 14c10 0 18 8 18 18 0 9-6 16-15 17.6 1.6-6.4 1.4-12.8-2-18.4 4.2 1.2 7.6 3.8 9.8 7.4-1-9.2-6.6-16-18.2-18.8 2.4-2.2 5.2-3.4 7.4-3.8z" fill="#7fd8a3" opacity="0.95"/>
  <path d="M30 50.2C20.8 48.4 15 41.4 15 32c0-7.8 5-14.4 12.4-16.8C20.6 21 19 30 22.8 39.4 25 44.8 28 48 30 50.2z" fill="#e8f3ec" opacity="0.92"/>
  <circle cx="32" cy="32" r="3.4" fill="#b08d57"/>
</svg>
